<svg width="201" height="201" viewBox="0 0 201 201" fill="none" xmlns="http://www.w3.org/2000/svg">
<circle cx="100.5" cy="100.5" r="100.5" fill="white"/>
<path d="M89.3438 124.819C83.6274 135.106 71.9883 140 60.2194 140H13C62.1556 133.856 96.3889 109.278 100.778 75.0445C105.167 109.278 139.4 133.856 188.556 140H141.336C129.567 140 117.928 135.106 112.212 124.819C106.024 113.684 102.083 101.085 100.778 87.3334C99.4731 101.085 95.5311 113.684 89.3438 124.819Z" fill="#545540"/>
<path d="M62.34 121.183C59.5826 122.735 56.682 124.193 53.6449 125.552C51.9197 119.592 51.2849 113.34 51.7912 107.111C52.461 98.8717 55.1071 90.928 59.4953 83.9843C63.8837 77.0405 69.8784 71.3107 76.9487 67.3026C84.019 63.2945 91.9468 61.1317 100.03 61.0058C108.112 60.88 116.101 62.7949 123.287 66.581C130.473 70.3671 136.636 75.9075 141.229 82.7115C145.821 89.5155 148.703 97.373 149.618 105.588C150.366 112.307 149.779 119.096 147.911 125.552C144.873 124.193 141.973 122.735 139.215 121.183C140.378 116.463 140.704 111.554 140.162 106.689C139.425 100.065 137.101 93.7285 133.397 88.2418C129.694 82.7552 124.724 78.2873 118.929 75.2342C113.134 72.1811 106.692 70.6369 100.174 70.7384C93.6563 70.8399 87.2635 72.5839 81.5621 75.816C75.8606 79.0482 71.0263 83.6686 67.4877 89.2681C63.949 94.8677 61.8151 101.273 61.2751 107.918C60.912 112.384 61.2765 116.866 62.34 121.183Z" fill="#7FB5E6"/>
</svg>
