<svg width="25" height="23" viewBox="0 0 25 23" fill="none" xmlns="http://www.w3.org/2000/svg">
<path d="M14.8343 8.90441C15.1905 8.90441 15.5322 8.7629 15.7841 8.51101C16.0359 8.25913 16.1775 7.91749 16.1775 7.56127C16.1775 7.20505 16.0359 6.86342 15.7841 6.61153C15.5322 6.35964 15.1905 6.21813 14.8343 6.21813C14.4781 6.21813 14.1365 6.35964 13.8846 6.61153C13.6327 6.86342 13.4912 7.20505 13.4912 7.56127C13.4912 7.91749 13.6327 8.25913 13.8846 8.51101C14.1365 8.7629 14.4781 8.90441 14.8343 8.90441ZM10.1333 8.90441C10.4896 8.90441 10.8312 8.7629 11.0831 8.51101C11.335 8.25913 11.4765 7.91749 11.4765 7.56127C11.4765 7.20505 11.335 6.86342 11.0831 6.61153C10.8312 6.35964 10.4896 6.21813 10.1333 6.21813C9.77711 6.21813 9.43548 6.35964 9.18359 6.61153C8.93171 6.86342 8.7902 7.20505 8.7902 7.56127C8.7902 7.91749 8.93171 8.25913 9.18359 8.51101C9.43548 8.7629 9.77711 8.90441 10.1333 8.90441ZM17.1848 12.9338C17.541 12.9338 17.8827 12.7923 18.1345 12.5404C18.3864 12.2885 18.5279 11.9469 18.5279 11.5907C18.5279 11.2345 18.3864 10.8928 18.1345 10.6409C17.8827 10.3891 17.541 10.2475 17.1848 10.2475C16.8286 10.2475 16.487 10.3891 16.2351 10.6409C15.9832 10.8928 15.8417 11.2345 15.8417 11.5907C15.8417 11.9469 15.9832 12.2885 16.2351 12.5404C16.487 12.7923 16.8286 12.9338 17.1848 12.9338ZM19.401 8.56863C19.6681 8.56863 19.9244 8.46249 20.1133 8.27358C20.3022 8.08466 20.4083 7.82844 20.4083 7.56127C20.4083 7.29411 20.3022 7.03788 20.1133 6.84897C19.9244 6.66005 19.6681 6.55392 19.401 6.55392C19.1338 6.55392 18.8776 6.66005 18.6887 6.84897C18.4998 7.03788 18.3936 7.29411 18.3936 7.56127C18.3936 7.82844 18.4998 8.08466 18.6887 8.27358C18.8776 8.46249 19.1338 8.56863 19.401 8.56863ZM19.401 16.6274C19.6681 16.6274 19.9244 16.5213 20.1133 16.3324C20.3022 16.1435 20.4083 15.8873 20.4083 15.6201C20.4083 15.3529 20.3022 15.0967 20.1133 14.9078C19.9244 14.7189 19.6681 14.6127 19.401 14.6127C19.1338 14.6127 18.8776 14.7189 18.6887 14.9078C18.4998 15.0967 18.3936 15.3529 18.3936 15.6201C18.3936 15.8873 18.4998 16.1435 18.6887 16.3324C18.8776 16.5213 19.1338 16.6274 19.401 16.6274ZM22.8931 12.598C23.1603 12.598 23.4165 12.4919 23.6054 12.303C23.7944 12.1141 23.9005 11.8579 23.9005 11.5907C23.9005 11.3235 23.7944 11.0673 23.6054 10.8784C23.4165 10.6895 23.1603 10.5833 22.8931 10.5833C22.626 10.5833 22.3697 10.6895 22.1808 10.8784C21.9919 11.0673 21.8858 11.3235 21.8858 11.5907C21.8858 11.8579 21.9919 12.1141 22.1808 12.303C22.3697 12.4919 22.626 12.598 22.8931 12.598ZM5.49951 8.56863C5.76668 8.56863 6.0229 8.46249 6.21182 8.27358C6.40073 8.08466 6.50686 7.82844 6.50686 7.56127C6.50686 7.29411 6.40073 7.03788 6.21182 6.84897C6.0229 6.66005 5.76668 6.55392 5.49951 6.55392C5.23234 6.55392 4.97612 6.66005 4.7872 6.84897C4.59829 7.03788 4.49216 7.29411 4.49216 7.56127C4.49216 7.82844 4.59829 8.08466 4.7872 8.27358C4.97612 8.46249 5.23234 8.56863 5.49951 8.56863ZM5.49951 16.6274C5.76668 16.6274 6.0229 16.5213 6.21182 16.3324C6.40073 16.1435 6.50686 15.8873 6.50686 15.6201C6.50686 15.3529 6.40073 15.0967 6.21182 14.9078C6.0229 14.7189 5.76668 14.6127 5.49951 14.6127C5.23234 14.6127 4.97612 14.7189 4.7872 14.9078C4.59829 15.0967 4.49216 15.3529 4.49216 15.6201C4.49216 15.8873 4.59829 16.1435 4.7872 16.3324C4.97612 16.5213 5.23234 16.6274 5.49951 16.6274ZM2.00735 12.598C2.27452 12.598 2.53074 12.4919 2.71966 12.303C2.90857 12.1141 3.01471 11.8579 3.01471 11.5907C3.01471 11.3235 2.90857 11.0673 2.71966 10.8784C2.53074 10.6895 2.27452 10.5833 2.00735 10.5833C1.74019 10.5833 1.48396 10.6895 1.29505 10.8784C1.10613 11.0673 1 11.3235 1 11.5907C1 11.8579 1.10613 12.1141 1.29505 12.303C1.48396 12.4919 1.74019 12.598 2.00735 12.598ZM17.7221 3.4647C17.9892 3.4647 18.2455 3.35857 18.4344 3.16966C18.6233 2.98074 18.7294 2.72452 18.7294 2.45735C18.7294 2.19018 18.6233 1.93396 18.4344 1.74504C18.2455 1.55613 17.9892 1.45 17.7221 1.45C17.4549 1.45 17.1987 1.55613 17.0098 1.74504C16.8208 1.93396 16.7147 2.19018 16.7147 2.45735C16.7147 2.72452 16.8208 2.98074 17.0098 3.16966C17.1987 3.35857 17.4549 3.4647 17.7221 3.4647ZM7.24559 3.4647C7.51276 3.4647 7.76898 3.35857 7.9579 3.16966C8.14681 2.98074 8.25294 2.72452 8.25294 2.45735C8.25294 2.19018 8.14681 1.93396 7.9579 1.74504C7.76898 1.55613 7.51276 1.45 7.24559 1.45C6.97842 1.45 6.7222 1.55613 6.53328 1.74504C6.34437 1.93396 6.23824 2.19018 6.23824 2.45735C6.23824 2.72452 6.34437 2.98074 6.53328 3.16966C6.7222 3.35857 6.97842 3.4647 7.24559 3.4647ZM12.551 4.53921C12.8181 4.53921 13.0744 4.43308 13.2633 4.24417C13.4522 4.05525 13.5583 3.79903 13.5583 3.53186C13.5583 3.26469 13.4522 3.00847 13.2633 2.81955C13.0744 2.63064 12.8181 2.52451 12.551 2.52451C12.2838 2.52451 12.0276 2.63064 11.8387 2.81955C11.6498 3.00847 11.5436 3.26469 11.5436 3.53186C11.5436 3.79903 11.6498 4.05525 11.8387 4.24417C12.0276 4.43308 12.2838 4.53921 12.551 4.53921ZM17.7221 22C17.9892 22 18.2455 21.8939 18.4344 21.705C18.6233 21.516 18.7294 21.2598 18.7294 20.9926C18.7294 20.7255 18.6233 20.4693 18.4344 20.2803C18.2455 20.0914 17.9892 19.9853 17.7221 19.9853C17.4549 19.9853 17.1987 20.0914 17.0098 20.2803C16.8208 20.4693 16.7147 20.7255 16.7147 20.9926C16.7147 21.2598 16.8208 21.516 17.0098 21.705C17.1987 21.8939 17.4549 22 17.7221 22ZM7.24559 22C7.51276 22 7.76898 21.8939 7.9579 21.705C8.14681 21.516 8.25294 21.2598 8.25294 20.9926C8.25294 20.7255 8.14681 20.4693 7.9579 20.2803C7.76898 20.0914 7.51276 19.9853 7.24559 19.9853C6.97842 19.9853 6.7222 20.0914 6.53328 20.2803C6.34437 20.4693 6.23824 20.7255 6.23824 20.9926C6.23824 21.2598 6.34437 21.516 6.53328 21.705C6.7222 21.8939 6.97842 22 7.24559 22ZM12.551 20.9255C12.8181 20.9255 13.0744 20.8194 13.2633 20.6304C13.4522 20.4415 13.5583 20.1853 13.5583 19.9181C13.5583 19.651 13.4522 19.3947 13.2633 19.2058C13.0744 19.0169 12.8181 18.9108 12.551 18.9108C12.2838 18.9108 12.0276 19.0169 11.8387 19.2058C11.6498 19.3947 11.5436 19.651 11.5436 19.9181C11.5436 20.1853 11.6498 20.4415 11.8387 20.6304C12.0276 20.8194 12.2838 20.9255 12.551 20.9255ZM7.78284 12.9338C8.13907 12.9338 8.4807 12.7923 8.73259 12.5404C8.98447 12.2885 9.12598 11.9469 9.12598 11.5907C9.12598 11.2345 8.98447 10.8928 8.73259 10.6409C8.4807 10.3891 8.13907 10.2475 7.78284 10.2475C7.42662 10.2475 7.08499 10.3891 6.8331 10.6409C6.58122 10.8928 6.43971 11.2345 6.43971 11.5907C6.43971 11.9469 6.58122 12.2885 6.8331 12.5404C7.08499 12.7923 7.42662 12.9338 7.78284 12.9338ZM10.1333 16.9632C10.4896 16.9632 10.8312 16.8217 11.0831 16.5698C11.335 16.318 11.4765 15.9763 11.4765 15.6201C11.4765 15.2639 11.335 14.9222 11.0831 14.6704C10.8312 14.4185 10.4896 14.277 10.1333 14.277C9.77711 14.277 9.43548 14.4185 9.18359 14.6704C8.93171 14.9222 8.7902 15.2639 8.7902 15.6201C8.7902 15.9763 8.93171 16.318 9.18359 16.5698C9.43548 16.8217 9.77711 16.9632 10.1333 16.9632ZM14.8343 16.9632C15.1905 16.9632 15.5322 16.8217 15.7841 16.5698C16.0359 16.318 16.1775 15.9763 16.1775 15.6201C16.1775 15.2639 16.0359 14.9222 15.7841 14.6704C15.5322 14.4185 15.1905 14.277 14.8343 14.277C14.4781 14.277 14.1365 14.4185 13.8846 14.6704C13.6327 14.9222 13.4912 15.2639 13.4912 15.6201C13.4912 15.9763 13.6327 16.318 13.8846 16.5698C14.1365 16.8217 14.4781 16.9632 14.8343 16.9632Z" stroke="black" stroke-width="1.34314" stroke-miterlimit="10"/>
</svg>
