<svg width="36" height="41" viewBox="0 0 36 41" fill="none" xmlns="http://www.w3.org/2000/svg">
<path d="M9.89315 12.5127V10.7116C9.89315 6.53364 13.2541 2.42998 17.432 2.04004C18.5929 1.92599 19.7647 2.05625 20.8722 2.42244C21.9797 2.78863 22.9982 3.38263 23.8623 4.16623C24.7263 4.94982 25.4168 5.90564 25.8891 6.97218C26.3615 8.03871 26.6053 9.19232 26.6049 10.3588V12.9212M12.6784 39.1215H23.8196C31.2842 39.1215 32.6211 36.132 33.0111 32.4925L34.4037 21.3514C34.9051 16.8206 33.6052 13.1255 25.6765 13.1255H10.8216C2.89278 13.1255 1.59298 16.8206 2.09433 21.3514L3.48698 32.4925C3.87692 36.132 5.21386 39.1215 12.6784 39.1215Z" stroke="black" stroke-width="2.78529" stroke-miterlimit="10" stroke-linecap="round" stroke-linejoin="round"/>
<path d="M24.7387 20.5529H24.7573M11.7407 20.5529H11.7555" stroke="black" stroke-width="3.71372" stroke-linecap="round" stroke-linejoin="round"/>
</svg>
