<svg width="65" height="64" viewBox="0 0 65 64" fill="none" xmlns="http://www.w3.org/2000/svg">
<g id="chat">
<path id="Vector" d="M56.9 32.6101V37.7951C56.9 47.4026 51.41 51.5201 43.175 51.5201H15.725C7.49 51.5201 2 47.4026 2 37.7951V21.3251C2 11.7176 7.49 7.6001 15.725 7.6001H23.96C23.5635 8.7591 23.35 10.0401 23.35 11.4126V23.3076C23.35 26.2661 24.326 28.7671 26.0645 30.5056C27.803 32.2441 30.304 33.2201 33.2625 33.2201V37.4596C33.2625 39.0151 35.0315 39.9606 36.343 39.1066L45.1575 33.2201H53.0875C54.46 33.2201 55.741 33.0066 56.9 32.6101Z" stroke="black" stroke-width="3" stroke-miterlimit="10" stroke-linecap="round" stroke-linejoin="round"/>
<path id="Vector_2" d="M18.47 62.5H40.43M29.45 51.52V62.5M63 11.4125V23.3075C63 27.852 60.682 31.268 56.9 32.61C55.741 33.0065 54.46 33.22 53.0875 33.22H45.1575L36.343 39.1065C35.0315 39.9605 33.2625 39.015 33.2625 37.4595V33.22C30.304 33.22 27.803 32.244 26.0645 30.5055C24.326 28.767 23.35 26.266 23.35 23.3075V11.4125C23.35 10.04 23.5635 8.759 23.96 7.6C25.302 3.818 28.718 1.5 33.2625 1.5H53.0875C59.035 1.5 63 5.465 63 11.4125Z" stroke="black" stroke-width="3" stroke-miterlimit="10" stroke-linecap="round" stroke-linejoin="round"/>
<path id="chat_dots" d="M52.3098 17.5127H52.3403M43.7728 17.5127H43.8003M35.2298 17.5127H35.2603" stroke="black" stroke-width="3" stroke-linecap="round" stroke-linejoin="round"/>
</g>
</svg>
