<svg width="59" height="59" viewBox="0 0 59 59" fill="none" xmlns="http://www.w3.org/2000/svg">
<g id="discount">
<path id="coupon" d="M21.2679 37.7349L37.7927 21.2101M7.46695 36.7984L3.28067 32.6122C1.57311 30.9046 1.57311 28.0954 3.28067 26.3878L7.46695 22.2016C8.18302 21.4855 8.76139 20.0809 8.76139 19.0894V13.168C8.76139 10.7444 10.7444 8.76139 13.168 8.76139H19.0894C20.0809 8.76139 21.4855 8.18302 22.2016 7.46695L26.3878 3.28067C28.0954 1.57311 30.9046 1.57311 32.6122 3.28067L36.7984 7.46695C37.5145 8.18302 38.9191 8.76139 39.9106 8.76139H45.832C48.2556 8.76139 50.2386 10.7444 50.2386 13.168V19.0894C50.2386 20.0809 50.817 21.4855 51.533 22.2016L55.7193 26.3878C57.4269 28.0954 57.4269 30.9046 55.7193 32.6122L51.533 36.7984C50.817 37.5145 50.2386 38.9191 50.2386 39.9106V45.832C50.2386 48.2556 48.2556 50.2386 45.832 50.2386H39.9106C38.9191 50.2386 37.5145 50.817 36.7984 51.533L32.6122 55.7193C30.9046 57.4269 28.0954 57.4269 26.3878 55.7193L22.2016 51.533C21.4855 50.817 20.0809 50.2386 19.0894 50.2386H13.168C10.7444 50.2386 8.76139 48.2556 8.76139 45.832V39.9106C8.76139 38.8916 8.18302 37.487 7.46695 36.7984Z" stroke="black" stroke-width="3" stroke-linecap="round" stroke-linejoin="round"/>
<path id="dots" d="M36.4019 36.3585H36.4266M22.6312 22.5879H22.6532" stroke="black" stroke-width="3" stroke-linecap="round" stroke-linejoin="round"/>
</g>
</svg>
