<svg width="25" height="26" viewBox="0 0 25 26" fill="none" xmlns="http://www.w3.org/2000/svg">
<path d="M14.74 9.9753V13.2233H17.652C17.876 13.2233 17.988 13.4473 17.988 13.6713L17.54 15.7993C17.54 15.9113 17.316 16.0233 17.204 16.0233H14.74V24.1993H11.38V16.1353H9.47601C9.25201 16.1353 9.14001 16.0233 9.14001 15.7993V13.6713C9.14001 13.4473 9.25201 13.3353 9.47601 13.3353H11.38V9.6393C11.38 7.7353 12.836 6.2793 14.74 6.2793H17.764C17.988 6.2793 18.1 6.3913 18.1 6.6153V9.3033C18.1 9.5273 17.988 9.6393 17.764 9.6393H15.076C14.852 9.6393 14.74 9.7513 14.74 9.9753Z" stroke="white" stroke-width="1.68" stroke-miterlimit="10" stroke-linecap="round"/>
<path d="M15.86 24.1998H9.14005C3.54005 24.1998 1.30005 21.9598 1.30005 16.3598V9.6398C1.30005 4.0398 3.54005 1.7998 9.14005 1.7998H15.86C21.46 1.7998 23.7 4.0398 23.7 9.6398V16.3598C23.7 21.9598 21.46 24.1998 15.86 24.1998Z" stroke="white" stroke-width="1.68" stroke-linecap="round" stroke-linejoin="round"/>
</svg>
