<svg width="26" height="26" viewBox="0 0 26 26" fill="none" xmlns="http://www.w3.org/2000/svg">
<path d="M9.56805 24.4394H16.432C22.152 24.4394 24.44 22.1514 24.44 16.4314V9.5675C24.44 3.84755 22.152 1.55957 16.432 1.55957H9.56805C3.84806 1.55957 1.56006 3.84755 1.56006 9.5675V16.4314C1.56006 22.1514 3.84806 24.4394 9.56805 24.4394Z" stroke="white" stroke-width="1.71599" stroke-linecap="round" stroke-linejoin="round"/>
<path d="M13 17.003C13.5258 17.003 14.0465 16.8995 14.5323 16.6983C15.0181 16.497 15.4595 16.2021 15.8313 15.8303C16.2031 15.4585 16.498 15.0171 16.6992 14.5313C16.9005 14.0455 17.004 13.5249 17.004 12.9991C17.004 12.4733 16.9005 11.9526 16.6992 11.4668C16.498 10.981 16.2031 10.5397 15.8313 10.1679C15.4595 9.79605 15.0181 9.50112 14.5323 9.2999C14.0465 9.09868 13.5258 8.99512 13 8.99512C11.9381 8.99512 10.9197 9.41696 10.1688 10.1679C9.41788 10.9187 8.99603 11.9372 8.99603 12.9991C8.99603 14.061 9.41788 15.0794 10.1688 15.8303C10.9197 16.5812 11.9381 17.003 13 17.003Z" stroke="white" stroke-width="1.71599" stroke-linecap="round" stroke-linejoin="round"/>
<path d="M19.4476 7.2793H19.4619" stroke="white" stroke-width="2.28799" stroke-linecap="round" stroke-linejoin="round"/>
</svg>
