<svg width="50" height="65" viewBox="0 0 50 65" fill="none" xmlns="http://www.w3.org/2000/svg">
<g id="location">
<path id="base" d="M49.0768 61.051C49.077 61.051 49.0758 61.0531 49.0727 61.0575C49.075 61.0531 49.0766 61.051 49.0768 61.051ZM48.924 61.1798C48.9269 61.182 48.9298 61.1841 48.9326 61.1863C48.9298 61.1884 48.9269 61.1906 48.924 61.1928C48.7028 61.3591 48.3164 61.5601 47.7272 61.7745C46.5599 62.1991 44.8169 62.5984 42.5982 62.9398C38.1757 63.6201 32.0323 64.0451 25.2234 64.0451C18.4146 64.0451 12.2712 63.6201 7.84868 62.9398C5.63 62.5984 3.88703 62.1991 2.7197 61.7745C2.13045 61.5601 1.74414 61.3591 1.52293 61.1928C1.52 61.1906 1.51713 61.1884 1.51431 61.1863C1.51713 61.1841 1.52 61.182 1.52293 61.1798C1.74414 61.0135 2.13045 60.8124 2.7197 60.5981C3.88703 60.1735 5.63 59.7742 7.84868 59.4328C12.2712 58.7524 18.4146 58.3275 25.2234 58.3275C32.0323 58.3275 38.1757 58.7524 42.5982 59.4328C44.8169 59.7742 46.5599 60.1735 47.7272 60.5981C48.3164 60.8124 48.7028 61.0135 48.924 61.1798ZM1.37013 61.051C1.37034 61.051 1.37191 61.0531 1.37423 61.0575C1.37109 61.0532 1.36993 61.051 1.37013 61.051ZM1.37013 61.3216C1.36993 61.3216 1.37109 61.3194 1.37423 61.3151C1.37191 61.3195 1.37034 61.3216 1.37013 61.3216ZM49.0727 61.3151C49.0758 61.3194 49.077 61.3216 49.0768 61.3216C49.0766 61.3216 49.075 61.3194 49.0727 61.3151Z" stroke="black" stroke-width="1.90589"/>
<g id="shield_mark">
<path id="shield" d="M3.35238 18.7794C8.37051 -3.28003 41.0521 -3.25455 46.0447 18.8049C48.9741 31.745 40.9247 42.6983 33.8687 49.4741C31.4029 51.8515 28.1111 53.1798 24.6858 53.1798C21.2605 53.1798 17.9688 51.8515 15.5029 49.4741C8.4724 42.6983 0.423007 31.7196 3.35238 18.7794Z" stroke="black" stroke-width="3"/>
<path id="mark" d="M17.6935 26.4473L21.5145 30.2682L31.7036 20.0791" stroke="black" stroke-width="3" stroke-linecap="round" stroke-linejoin="round"/>
</g>
</g>
</svg>
