<svg width="24" height="25" viewBox="0 0 24 25" fill="none" xmlns="http://www.w3.org/2000/svg">
<path d="M0.400513 12.5016C0.460839 9.20914 1.62327 6.45967 3.89014 4.25545C6.15701 2.05123 8.86008 0.930554 12.0017 0.900391C15.3846 0.960717 18.1572 2.11619 20.3174 4.36682C22.4775 6.61744 23.5727 9.32979 23.6028 12.5016C23.5425 15.7638 22.3801 18.5063 20.1132 20.7268C17.8463 22.9449 15.1433 24.0702 12.0017 24.1004C10.9135 24.1004 9.82762 23.9333 8.73943 23.6015C8.95057 23.2697 9.16171 22.8916 9.37285 22.4693C9.61415 21.9565 9.91578 20.989 10.2801 19.569C10.3705 19.1769 10.5074 18.6478 10.6884 17.9819C10.8996 18.3439 11.2615 18.6757 11.7766 18.9796C13.1363 19.6131 14.5702 19.5527 16.0806 18.7987C17.6514 17.8915 18.7396 16.4877 19.3429 14.5851C19.8858 12.592 19.8185 10.7405 19.1387 9.03512C18.4589 7.32743 17.2431 6.09771 15.4913 5.34131C13.2871 4.70789 11.1409 4.77518 9.0573 5.5455C6.97373 6.31581 5.52359 7.63835 4.70686 9.51077C4.49572 10.2045 4.36811 10.8936 4.3217 11.5735C4.2753 12.2533 4.2985 12.9169 4.38899 13.5665C4.47948 14.2162 4.70686 14.7986 5.06882 15.3114C5.43078 15.8241 5.9157 16.2186 6.51897 16.49C6.66978 16.5504 6.79043 16.5504 6.88092 16.49C7.00157 16.4297 7.12222 16.1884 7.24288 15.7661C7.36353 15.3438 7.40993 15.0561 7.37977 14.9053C7.34961 14.845 7.28928 14.7383 7.19879 14.5874C6.56537 13.5596 6.35191 12.4807 6.56537 11.3484C6.77651 10.2161 7.2452 9.25555 7.96911 8.47131C9.08746 7.47361 10.3938 6.93067 11.888 6.84018C13.3822 6.7497 14.6607 7.15806 15.7164 8.06295C16.2895 8.72653 16.6607 9.52701 16.8254 10.4644C16.9902 11.4018 16.9925 12.2997 16.8254 13.1605C16.6584 14.0213 16.3637 14.8287 15.9414 15.5851C15.185 16.7638 14.2941 17.3671 13.2685 17.3972C12.6653 17.3671 12.1734 17.1327 11.7952 16.6942C11.417 16.2557 11.3033 15.7499 11.4564 15.1768C11.5167 14.845 11.6977 14.1953 11.9994 13.2278C12.301 12.2602 12.468 11.5363 12.4982 11.0537C12.4077 9.90521 11.8787 9.31587 10.9112 9.28571C10.1548 9.3762 9.59791 9.71727 9.23364 10.3043C8.86936 10.8913 8.67446 11.5665 8.6443 12.3206C8.73479 13.1976 8.87168 13.8009 9.05266 14.1327C8.72086 15.4923 8.46332 16.5805 8.28234 17.3949C8.22202 17.6061 8.05496 18.2557 7.78349 19.3439C7.51202 20.4321 7.36121 21.2627 7.33105 21.8358V23.105C5.18715 22.1073 3.49338 20.6664 2.2567 18.7778C1.02001 16.8891 0.400513 14.7963 0.400513 12.5016Z" fill="white"/>
</svg>
