<svg width="30" height="25" viewBox="0 0 30 25" fill="none" xmlns="http://www.w3.org/2000/svg">
<path d="M14.8291 2.41699C16.0739 2.41699 17.1492 1.62329 17.5354 0.455688C16.7985 0.658538 15.8592 0.780967 14.8291 0.780967C13.7991 0.780967 12.8599 0.658538 12.123 0.455688C12.5091 1.62319 13.5842 2.41699 14.8291 2.41699Z" fill="black"/>
<path d="M29.1626 3.85278C29.1035 3.68688 28.9805 3.55045 28.8203 3.47616L23.3413 0.946858C22.1758 0.55205 20.9885 0.240191 19.7896 0.0122526C19.7473 0.00398692 19.7053 0 19.6639 0C19.3671 0 19.1014 0.204892 19.0352 0.505374C18.5974 2.43274 16.8913 3.87573 14.8294 3.87573C12.7675 3.87573 11.0613 2.43283 10.6236 0.505374C10.5567 0.204892 10.2914 0 9.99481 0C9.95339 0 9.91138 0.00398692 9.86918 0.0122526C8.67036 0.240191 7.48302 0.55205 6.31571 0.946858L0.838672 3.47606C0.677443 3.55035 0.553555 3.68679 0.497251 3.85268C0.439002 4.02053 0.449504 4.20169 0.531578 4.36L2.91015 9.05413C3.02149 9.27692 3.24797 9.41063 3.48758 9.41063C3.54943 9.41063 3.61215 9.40168 3.674 9.38311L6.31581 8.6001V24.3506C6.31581 24.7083 6.60763 25 6.96627 25H22.6928C23.0504 25 23.3414 24.7082 23.3414 24.3506V8.6003L25.985 9.3833C26.0469 9.40188 26.1095 9.41082 26.1712 9.41082C26.4104 9.41082 26.636 9.27711 26.7489 9.05433L29.1283 4.3602C29.2084 4.20179 29.2199 4.02062 29.1626 3.85278Z" fill="black"/>
</svg>
