<svg width="24" height="24" viewBox="0 0 24 24" fill="none" xmlns="http://www.w3.org/2000/svg">
<path d="M13.749 2.13259L15.7662 6.16705C16.0413 6.72867 16.7748 7.26736 17.3937 7.37051L21.05 7.97798C23.3881 8.36767 23.9383 10.064 22.2534 11.7374L19.411 14.5798C18.9296 15.0612 18.666 15.9896 18.815 16.6544L19.6287 20.1731C20.2706 22.9582 18.792 24.0356 16.3278 22.58L12.9008 20.5513C12.2819 20.1845 11.2618 20.1845 10.6314 20.5513L7.20441 22.58C4.75164 24.0356 3.26164 22.9468 3.90349 20.1731L4.71726 16.6544C4.86626 15.9896 4.60264 15.0612 4.12126 14.5798L1.27879 11.7374C-0.394592 10.064 0.144101 8.36767 2.48226 7.97798L6.13849 7.37051C6.74595 7.26736 7.47949 6.72867 7.75457 6.16705L9.7718 2.13259C10.8721 -0.056566 12.6601 -0.056566 13.749 2.13259Z" fill="black" stroke="black" stroke-width="0.603306" stroke-linecap="round" stroke-linejoin="round"/>
</svg>
