<svg width="25" height="24" viewBox="0 0 25 24" fill="none" xmlns="http://www.w3.org/2000/svg">
<path d="M4.83356 19.3754L5.48684 16.5739C5.63583 15.916 5.37223 14.9973 4.89087 14.521L2.04856 11.7081C0.375262 10.0522 0.913926 8.37351 3.25196 7.98788L6.90799 7.38675C7.51542 7.28467 8.24892 6.75159 8.52398 6.19582L10.5411 2.20339C11.6299 0.0370368 13.4178 0.0370368 14.5181 2.20339L16.5352 6.19582C16.6612 6.45669 16.9019 6.70622 17.1655 6.92172M21.8187 7.98788C24.1567 8.37351 24.7068 10.0522 23.0221 11.7081L20.1798 14.521C19.6984 14.9973 19.4348 15.916 19.5838 16.5739L20.3975 20.0559C21.0393 22.8121 19.5609 23.8782 17.0968 22.4378L13.6699 20.4302C13.0511 20.0673 12.031 20.0673 11.4007 20.4302L7.97386 22.4378M23.9962 0.490723L1.07438 23.175" stroke="black" stroke-width="0.603306" stroke-linecap="round" stroke-linejoin="round"/>
</svg>
