<svg width="23" height="20" viewBox="0 0 23 20" fill="none" xmlns="http://www.w3.org/2000/svg">
<path d="M22.2772 4.81983C22.1781 6.98337 20.6626 9.94751 17.7333 13.7096C14.7022 17.6377 12.137 19.6004 10.0404 19.6004C8.74177 19.6004 7.64126 18.4008 6.74693 16.0043L4.95292 9.41198C4.28351 7.01282 3.56858 5.81592 2.80545 5.81592C2.63944 5.81592 2.05572 6.16401 1.05696 6.86555L0.00732422 5.51602L3.24459 2.61882C4.70925 1.35229 5.80708 0.690917 6.53808 0.621299C8.27854 0.457963 9.34156 1.6388 9.74053 4.19862L10.6402 9.29417C11.1383 11.5594 11.6898 12.6948 12.287 12.6948C12.7529 12.6948 13.4517 11.9611 14.3862 10.4991C15.3207 9.03711 15.8188 7.91786 15.8857 7.15206C16.0196 5.88553 15.5189 5.25093 14.3862 5.25093C13.8507 5.25093 13.3045 5.36875 12.7395 5.59903C13.8105 2.03777 15.9366 0.305337 19.0319 0.40441C21.3293 0.471351 22.4111 1.95208 22.2772 4.84929V4.81983Z" fill="white"/>
</svg>
